<svg xmlns="http://www.w3.org/2000/svg" width="640" height="480" viewBox="0 0 640 480">
<defs>
<linearGradient id="sky" x2="0" y2="1"><stop stop-color="#08111e"/><stop offset=".58" stop-color="#203653"/><stop offset="1" stop-color="#6f89a6"/></linearGradient>
<linearGradient id="lake" x2="0" y2="1"><stop stop-color="#17283c"/><stop offset="1" stop-color="#071019"/></linearGradient>
<linearGradient id="glow" x2="0" y2="1"><stop stop-color="#d7e4f2" stop-opacity=".34"/><stop offset="1" stop-color="#9bb7d1" stop-opacity="0"/></linearGradient>
<filter id="soft"><feGaussianBlur stdDeviation="10"/></filter>
</defs>
<rect width="640" height="480" fill="url(#sky)"/>
<circle cx="485" cy="130" r="58" fill="#c9d8e8" opacity=".16" filter="url(#soft)"/>
<circle cx="485" cy="130" r="24" fill="#e1ebf5" opacity=".42"/>
<path d="M0 300L95 212L150 274L232 170L332 300L406 224L510 318L575 248L640 300V480H0Z" fill="#101b2b"/>
<path d="M0 330L115 244L173 298L235 218L315 314L406 250L492 330L560 274L640 330V480H0Z" fill="#1b2a3d"/>
<path d="M95 212L118 250L150 274L232 170L267 230L240 211L226 195L157 286L129 267Z" fill="#b5c4d4" opacity=".42"/>
<path d="M406 224L434 263L510 318L575 248L602 290L575 274L510 332L464 306Z" fill="#c1cfdd" opacity=".27"/>
<rect y="322" width="640" height="158" fill="url(#lake)"/>
<path d="M0 335C95 325 178 347 270 336S472 327 640 341V480H0Z" fill="#0b1724" opacity=".72"/>
<g opacity=".16" stroke="#8da8c2" stroke-width="2"><path d="M40 360h130M245 372h175M470 355h112M80 405h210M350 418h180M15 450h160M205 463h240"/></g>
<path d="M350 322L430 322L472 480H270Z" fill="url(#glow)" opacity=".22"/>
</svg>